# AST/ASF file generated using VICON BodyLanguage
# -----------------------------------------------
:version 1.10
:name VICON
:units
  mass 1.0
  length 0.45
  angle deg
:documentation
   .ast/.asf automatically generated from VICON data using
   VICON BodyBuilder and BodyLanguage model FoxedUp or BRILLIANT.MOD
:root
   order TX TY TZ RX RY RZ
   axis XYZ
   position 0 0 0  
   orientation 0 0 0 
:bonedata
  begin
     id 1 
     name lhipjoint
     direction 0.645422 -0.672597 0.361999 
     length 2.39934 
     axis 0 0 0  XYZ
  end
  begin
     id 2 
     name lfemur
     direction 0.34202 -0.939693 0  
     length 6.58112  
     axis 0 0 20  XYZ
    dof rx ry rz
    limits (-160.0 20.0)
           (-70.0 70.0)
           (-60.0 70.0)
  end
  begin
     id 3 
     name ltibia
     direction 0.34202 -0.939693 0   
     length 7.02673   
     axis 0 0 20   XYZ
    dof rx
    limits (-10.0 170.0)
  end
  begin
     id 4 
     name lfoot
     direction 0.0835106 -0.229444 0.969733   
     length 2.08772   
     axis -90 7.62852e-016 20   XYZ
    dof rx rz
    limits (-45.0 90.0)
           (-70.0 20.0)
  end
  begin
     id 5 
     name ltoes
     direction 1.5358e-011 -4.21925e-011 1   
     length 1.04844   
     axis -90 7.62852e-016 20   XYZ
    dof rx
    limits (-90.0 20.0)
  end
  begin
     id 6 
     name rhipjoint
     direction -0.644959 -0.672941 0.362185   
     length 2.39812  
     axis 0 0 0  XYZ 
  end
  begin
     id 7 
     name rfemur
     direction -0.34202 -0.939693 0   
     length 6.67015   
     axis 0 0 -20   XYZ
    dof rx ry rz
    limits (-160.0 20.0)
           (-70.0 70.0)
           (-70.0 60.0)
  end
  begin
     id 8 
     name rtibia
     direction -0.34202 -0.939693 0   
     length 7.35735   
     axis 0 0 -20   XYZ
    dof rx
    limits (-10.0 170.0)
 end
 begin
     id 9 
     name rfoot
     direction -0.0670769 -0.184292 0.98058   
     length 2.25469  
     axis -90 -7.62852e-016 -20   XYZ
    dof rx rz
    limits (-45.0 90.0)
           (-20.0 70.0)
  end
  begin
     id 10 
     name rtoes
     direction -1.53575e-011 -4.21908e-011 1   
     length 1.13399   
     axis -90 -7.62852e-016 -20   XYZ
    dof rx
    limits (-90.0 20.0)
  end
  begin
     id 11 
     name lowerback
     direction -0.0188328 0.993434 -0.112847   
     length 2.27656   
     axis 0 0 0   XYZ
    dof rx ry rz
    limits (-20.0 45.0)
           (-30.0 30.0)
           (-30.0 30.0)
  end
  begin
     id 12 
     name upperback
     direction 0.00983139 0.998968 -0.04435   
     length 2.28631   
     axis 0 0 0   XYZ
    dof rx ry rz
    limits (-20.0 45.0)
           (-30.0 30.0)
           (-30.0 30.0)
  end
  begin
     id 13 
     name thorax
     direction 0.0177718 0.999807 0.00833073   
     length 2.30999   
     axis 0 0 0   XYZ
    dof rx ry rz
    limits (-20.0 45.0)
           (-30.0 30.0)
           (-30.0 30.0)
  end
  begin
     id 14 
     name lowerneck
     direction -0.0835025 0.993181 0.0813558   
     length 1.39447   
     axis 0 0 0   XYZ
    dof rx ry rz
    limits (-20.0 45.0)
           (-30.0 30.0)
           (-30.0 30.0)
  end
  begin
     id 15 
     name upperneck
     direction 0.210059 0.976535 0.0474817   
     length 1.39882   
     axis 0 0 0   XYZ
    dof rx ry rz
    limits (-20.0 45.0)
           (-30.0 30.0)
           (-30.0 30.0)
  end
  begin
     id 16
     name head
     direction 0.0780891 0.996944 -0.00207154  
     length 1.41828  
     axis 0 0 0   XYZ
    dof rx ry rz
    limits (-20.0 45.0)
           (-30.0 30.0)
           (-30.0 30.0)
  end
  begin
     id 17 
     name lclavicle
     direction 0.982414 0.166355 -0.0847829  
     length 3.57922  
     axis 0 0 0   XYZ
    dof ry rz
    limits (-20.0 10.0)
           (0.0 20.0)
  end
  begin
     id 18 
     name lhumerus
     direction 1 -4.48975e-011 5.47647e-028   
     length 4.76405   
     axis -180 -30 -90   XYZ
    dof rx ry rz
    limits (-60.0 90.0)
           (-90.0 90.0)
           (-90.0 90.0)
  end
  begin
     id 19
     name lradius
     direction 1 -4.48949e-011 -8.32142e-027   
     length 3.13759   
     axis -180 -30 -90   XYZ
    dof rx
    limits (-10.0 170.0)
  end
  begin
     id 20
     name lwrist
     direction 1 -4.48978e-011 -1.32705e-026   
     length 1.56879   
     axis 9.60836e-015 90 90   XYZ
    dof ry
    limits (-180.0 0.0)
 end
  begin
     id 21 
     name lhand
     direction 1 -4.48975e-011 -2.65409e-026   
     length 0.732262   
     axis 1.69354e-014 90 90   XYZ
    dof rx rz
    limits (-90.0 90.0)
           (-45.0 45.0)
  end
  begin
     id 22 
     name lfingers
     direction 1 -4.48923e-011 -5.30819e-026   
     length 0.590368   
     axis 3.38708e-014 90 90   XYZ
    dof rx
    limits (0.0 90.0)
  end
  begin
     id 23
     name lthumb
     direction 0.707107 -6.34914e-011 0.707107   
     length 0.847654   
     axis -90 45 2.85299e-015   XYZ
    dof rx rz
    limits (-45.0 45.0)
           (-45.0 45.0)
  end
  begin
     id 24 
     name rclavicle
     direction -0.963658 0.245183 -0.106063   
     length 3.43472  
     axis 0 0 0   XYZ 
    dof ry rz
    limits (-10.0 20.0)
           (-20.0 0.0)
  end
  begin
     id 25 
     name rhumerus
     direction -1 -4.48963e-011 -1.64784e-027  
     length 5.10161   
     axis -180 30 90   XYZ
    dof rx ry rz
    limits (-90.0 60.0)
           (-90.0 90.0)
           (-90.0 90.0)
  end
  begin
     id 26 
     name rradius
     direction -1 -4.48969e-011 -2.87943e-027   
     length 3.23267   
     axis -180 30 90   XYZ
    dof rx
    limits (-10.0 170.0)
  end
  begin
     id 27 
     name rwrist
     direction -1 -4.48982e-011 -1.32705e-026   
     length 1.61633   
     axis 9.60836e-015 -90 -90   XYZ
    dof ry
    limits (-180.0 0.0)
  end
  begin
     id 28
     name rhand
     direction -1 -4.48963e-011 -2.65409e-026   
     length 0.702   
     axis 1.69354e-014 -90 -90   XYZ
    dof rx rz
    limits (-90.0 90.0)
           (-45.0 45.0)
  end
  begin
     id 29
     name rfingers
     direction -1 -4.48934e-011 -5.30819e-026   
     length 0.565971   
     axis 3.38708e-014 -90 -90   XYZ
    dof rx
    limits (0.0 90.0)
  end
  begin
     id 30
     name rthumb
     direction -0.707107 -6.34908e-011 0.707107   
     length 0.812624   
     axis -90 -45 -2.85299e-015   XYZ
    dof rx rz
    limits (-45.0 45.0)
           (-45.0 45.0)
  end
:hierarchy
  begin
    root lhipjoint rhipjoint lowerback
    lhipjoint lfemur
    lfemur ltibia
    ltibia lfoot
    lfoot ltoes
    rhipjoint rfemur
    rfemur rtibia
    rtibia rfoot
    rfoot rtoes
    lowerback upperback
    upperback thorax
    thorax lowerneck lclavicle rclavicle
    lowerneck upperneck
    upperneck head
    lclavicle lhumerus
    lhumerus lradius
    lradius lwrist
    lwrist lhand lthumb
    lhand lfingers
    rclavicle rhumerus
    rhumerus rradius
    rradius rwrist
    rwrist rhand rthumb
    rhand rfingers
  end

#!OML:ASF \\sashay\E\basketball\basketball\Project 1\Capture day 1\Session 1\Subject.ASF
:FULLY-SPECIFIED
:DEGREES
81
root -17.552 13.4549 -2.85495 -344.097 52.1676 -365.261
lowerback 26.5981 1.11913 3.74633
upperback 11.3344 3.00706 3.22385
thorax -2.11274 1.71925 0.534267
lowerneck -4.74333 -7.84747 -15.7204
upperneck -20.8862 -6.38083 28.2064
head -3.30611 -3.49217 12.1782
rclavicle 8.90555e-014 -4.77083e-015
rhumerus 30.4693 -11.7612 -84.6182
rradius 30.825
rwrist -3.59997
rhand -27.1589 41.0084
rfingers 7.12502
rthumb -0.573542 11.0294
lclavicle 8.90555e-014 -4.77083e-015
lhumerus -17.0294 -4.82526 81.549
lradius 23.0885
lwrist -39.625
lhand -31.1293 40.8554
lfingers 7.12502
lthumb -4.40799 70.7896
rfemur -43.6972 -4.68083 13.6931
rtibia 81.9888
rfoot -27.0988 -13.2614
rtoes -52.3109
lfemur -26.3738 28.0166 -18.2036
ltibia 106.451
lfoot -3.85603 7.44993
ltoes -20.3255
82
root -17.24 13.4429 -2.61523 -343.819 52.3994 -365.814
lowerback 26.6433 1.22693 4.47908
upperback 11.3831 3.32976 3.43536
thorax -2.04227 1.8963 0.262615
lowerneck -4.55236 -7.83705 -15.9808
upperneck -21.8954 -6.14731 28.4632
head -3.65437 -3.39754 12.4322
rclavicle 4.77083e-015 1.59028e-014
rhumerus 33.027 -13.8025 -83.8744
rradius 30.1544
rwrist -4.01451
rhand -26.866 40.3836
rfingers 7.12502
rthumb -0.290628 10.4041
lclavicle 4.77083e-015 1.59028e-014
lhumerus -20.7604 -5.47285 80.7306
lradius 23.7584
lwrist -37.3337
lhand -30.3897 40.4358
lfingers 7.12502
lthumb -3.69377 70.3835
rfemur -41.9069 -5.37483 14.2265
rtibia 80.7053
rfoot -26.6068 -15.2528
rtoes -53.3497
lfemur -32.3065 27.5132 -21.0871
ltibia 109.756
lfoot -4.55224 6.84695
ltoes -21.0014
83
root -16.9276 13.4334 -2.36598 -343.283 52.7647 -365.852
lowerback 26.7364 1.29189 4.70846
upperback 11.5162 3.48453 3.58988
thorax -1.92878 1.98218 0.260665
lowerneck -4.65422 -7.83596 -15.9583
upperneck -22.5651 -6.01428 28.3038
head -3.87769 -3.32453 12.4239
rclavicle 4.37326e-014 -1.66979e-014
rhumerus 35.8815 -16.7254 -83.9743
rradius 29.2247
rwrist -2.32556
rhand -25.2674 40.1153
rfingers 7.12502
rthumb 1.2533 10.1393
lclavicle 4.37326e-014 -1.66979e-014
lhumerus -24.5394 -5.85475 79.8972
lradius 24.4178
lwrist -34.8984
lhand -29.1422 39.6039
lfingers 7.12502
lthumb -2.48908 69.5692
rfemur -39.98 -6.3459 14.3729
rtibia 79.5332
rfoot -27.7611 -13.368
rtoes -52.2581
lfemur -38.3884 25.9966 -24.3964
ltibia 112.274
lfoot -6.17264 5.89072
ltoes -27.2889
84
root -16.5996 13.4443 -2.10729 -342.658 53.349 -365.617
lowerback 26.9388 1.29204 4.80664
upperback 11.5879 3.53299 3.64472
thorax -1.93947 2.012 0.247034
lowerneck -4.49568 -7.75436 -16.0581
upperneck -23.288 -5.74122 28.4369
head -4.1695 -3.20355 12.5855
rclavicle -2.38542e-014 5.80451e-014
rhumerus 38.0151 -18.9553 -83.5448
rradius 29.1658
rwrist -3.20715
rhand -25.1766 39.1283
rfingers 7.12502
rthumb 1.34098 9.15275
lclavicle -2.38542e-014 5.80451e-014
lhumerus -28.4528 -6.55657 79.1277
lradius 25.0463
lwrist -32.0167
lhand -28.039 39.379
lfingers 7.12502
lthumb -1.42362 69.354
rfemur -37.6969 -7.56345 14.2982
rtibia 78.1641
rfoot -28.396 -11.8548
rtoes -51.5427
lfemur -43.9342 23.5155 -27.6532
ltibia 113.698
lfoot -6.81999 4.75507
ltoes -32.0806
85
root -16.2849 13.4223 -1.84553 -342.356 54.0461 -365.674
lowerback 26.9886 1.37702 4.97512
upperback 11.796 3.6943 3.69797
thorax -1.71774 2.10892 0.17253
lowerneck -4.41957 -7.75986 -15.786
upperneck -24.1302 -5.53084 28.6358
head -4.48169 -3.14329 12.7037
rclavicle 1.90833e-014 2.70347e-014
rhumerus 39.6087 -21.3213 -82.7865
rradius 29.8313
rwrist -5.19013
rhand -25.7591 38.1978
rfingers 7.12502
rthumb 0.778415 8.21944
lclavicle 1.90833e-014 2.70347e-014
lhumerus -31.9601 -7.56405 78.5044
lradius 25.3615
lwrist -28.9246
lhand -27.2919 39.7929
lfingers 7.12502
lthumb -0.701995 69.7715
rfemur -35.5018 -8.75361 14.3845
rtibia 76.8795
rfoot -27.9969 -12.2109
rtoes -52.6263
lfemur -49.0601 20.5742 -30.2896
ltibia 114.489
lfoot -7.5142 3.30346
ltoes -30.7848
86
root -15.9578 13.4033 -1.57124 -342.482 54.6873 -365.943
lowerback 27.225 1.8889 4.44366
upperback 11.9981 4.2876 4.45814
thorax -1.6895 2.37003 1.13411
lowerneck -4.54222 -7.9858 -15.4952
upperneck -24.6097 -5.8814 27.8447
head -4.59601 -3.29465 12.3392
rclavicle -1.01778e-013 7.15625e-015
rhumerus 40.4669 -23.7945 -80.5552
rradius 31.3465
rwrist -10.5874
rhand -30.2607 37.2769
rfingers 7.12502
rthumb -3.56921 7.32704
lclavicle -1.01778e-013 7.15625e-015
lhumerus -35.4755 -8.23279 79.1384
lradius 25.2575
lwrist -25.7875
lhand -26.5831 40.0462
lfingers 7.12502
lthumb -0.0173854 70.026
rfemur -32.9188 -9.5343 14.3639
rtibia 75.3285
rfoot -28.5201 -9.42838
rtoes -52.3209
lfemur -53.3234 17.4565 -32.2871
ltibia 114.405
lfoot -8.60127 2.02888
ltoes -31.6391
87
root -15.6145 13.388 -1.28463 -343.121 55.3347 -366.487
lowerback 27.7352 2.22378 4.59287
upperback 12.0533 4.81657 4.83444
thorax -1.88175 2.62547 1.29271
lowerneck -3.27136 -8.02442 -16.0274
upperneck -25.5699 -5.92424 28.023
head -5.06575 -3.37565 12.6675
rclavicle 4.6118e-014 3.4191e-014
rhumerus 41.3489 -28.3254 -80.6087
rradius 34.38
rwrist -19.327
rhand -24.012 35.0357
rfingers 7.12502
rthumb 2.46582 5.07024
lclavicle 4.6118e-014 3.4191e-014
lhumerus -39.3806 -9.90713 79.8753
lradius 25.3061
lwrist -21.6985
lhand -26.315 40.6906
lfingers 7.12502
lthumb 0.241482 70.6702
rfemur -29.6768 -9.98381 14.3611
rtibia 73.3277
rfoot -28.7259 -6.21777
rtoes -51.5572
lfemur -56.8334 14.3167 -33.6076
ltibia 113.591
lfoot -9.26242 0.770491
ltoes -33.8261
88
root -15.2723 13.3548 -0.987142 -344.301 56.103 -367.529
lowerback 28.2798 2.28435 4.63234
upperback 12.1301 4.97653 5.10146
thorax -2.06767 2.70138 1.49406
lowerneck -2.35127 -7.85174 -16.1152
upperneck -26.23 -5.59935 28.4061
head -5.48323 -3.29418 12.9845
rclavicle 1.59028e-015 4.53229e-014
rhumerus 39.7151 -31.3182 -79.4039
rradius 40.0845
rwrist -29.5515
rhand -14.8463 31.1971
rfingers 7.12502
rthumb 11.313 1.52224
lclavicle 1.59028e-015 4.53229e-014
lhumerus -43.4637 -10.776 80.4845
lradius 25.2891
lwrist -17.681
lhand -25.2907 41.5409
lfingers 7.12502
lthumb 1.23078 71.5171
rfemur -25.9884 -10.431 14.7959
rtibia 70.9556
rfoot -28.3328 -3.89725
rtoes -51.272
lfemur -60.1763 11.3623 -34.2108
ltibia 112.335
lfoot -8.98105 -0.956887
ltoes -31.849
89
root -14.9145 13.3322 -0.673212 -345.422 56.9395 -368.524
lowerback 28.7192 2.36881 4.8043
upperback 12.1802 5.17445 5.1237
thorax -2.19926 2.80647 1.34569
lowerneck -1.45774 -7.81652 -15.5416
upperneck -26.8169 -5.46101 28.6481
head -5.87706 -3.3579 13.0966
rclavicle 1.22451e-013 -1.43125e-014
rhumerus 37.5893 -34.5205 -78.0408
rradius 44.0075
rwrist -33.0604
rhand -5.44794 29.0676
rfingers 7.12502
rthumb 20.363 0.115156
lclavicle 1.22451e-013 -1.43125e-014
lhumerus -47.2452 -11.7307 80.9956
lradius 25.0717
lwrist -13.9498
lhand -25.3275 41.6305
lfingers 7.12502
lthumb 1.19529 71.6069
rfemur -22.03 -10.765 15.1558
rtibia 68.1039
rfoot -27.4541 -1.13641
rtoes -51.4683
lfemur -63.1439 8.68166 -34.6089
ltibia 110.411
lfoot -9.50093 -2.33187
ltoes -25.652
90
root -14.5346 13.3176 -0.342065 -346.191 57.8264 -369.229
lowerback 28.8062 2.51334 4.83085
upperback 12.3008 5.37622 5.05868
thorax -2.09339 2.91793 1.20268
lowerneck -0.665166 -7.8454 -14.7077
upperneck -27.1981 -5.45651 28.6477
head -6.19107 -3.49024 13.0236
rclavicle 1.09729e-013 2.54444e-014
rhumerus 33.3337 -35.4038 -73.4393
rradius 47.0509
rwrist -32.8322
rhand -5.71195 27.1585
rfingers 7.12502
rthumb 20.1092 -1.82079
lclavicle 1.09729e-013 2.54444e-014
lhumerus -50.6467 -12.2599 81.4236
lradius 24.7453
lwrist -10.9157
lhand -24.9689 41.9318
lfingers 7.12502
lthumb 1.54163 71.906
rfemur -17.9547 -10.9275 15.2094
rtibia 64.8125
rfoot -26.0317 2.57464
rtoes -51.5894
lfemur -65.7744 6.31331 -35.1471
ltibia 107.95
lfoot -9.92059 -3.42012
ltoes -28.0944
91
root -14.1298 13.3143 0.00516561 -346.687 58.9338 -369.667
lowerback 28.735 2.75958 4.58708
upperback 12.1446 5.66396 5.43691
thorax -2.30148 3.03877 1.66248
lowerneck 1.12554 -7.84389 -14.8306
upperneck -27.5555 -5.69111 28.4531
head -6.59881 -3.70477 13.1167
rclavicle -4.92986e-014 3.18055e-014
rhumerus 26.1479 -34.0945 -64.7696
rradius 50.0963
rwrist -32.9213
rhand -8.1414 25.2478
rfingers 7.12502
rthumb 17.7728 -3.96003
lclavicle -4.92986e-014 3.18055e-014
lhumerus -54.4054 -12.0657 82.532
lradius 24.3176
lwrist -8.82715
lhand -24.809 42.2807
lfingers 7.12502
lthumb 1.69604 72.2537
rfemur -13.5816 -10.9204 15.0779
rtibia 60.9159
rfoot -23.858 6.93358
rtoes -50.9603
lfemur -67.9224 4.14153 -35.8378
ltibia 104.895
lfoot -10.6425 -3.8992
ltoes -26.0363
92
root -13.7238 13.2989 0.366658 -347.123 60.2165 -370.058
lowerback 28.515 2.76627 3.94703
upperback 12.2454 5.54374 5.77461
thorax -2.18383 2.96499 2.44227
lowerneck 1.6272 -7.83553 -14.5999
upperneck -27.4439 -5.79888 28.2247
head -6.66354 -3.79655 12.9936
rclavicle 3.97569e-014 5.48646e-014
rhumerus 22.1514 -34.5212 -60.9865
rradius 51.086
rwrist -26.2497
rhand -8.78684 25.4733
rfingers 7.12502
rthumb 17.1516 -3.78964
lclavicle 3.97569e-014 5.48646e-014
lhumerus -57.4061 -10.4047 82.819
lradius 23.8309
lwrist -7.69071
lhand -24.5258 42.3661
lfingers 7.12502
lthumb 1.96955 72.3368
rfemur -8.96982 -10.4183 15.0395
rtibia 56.3513
rfoot -20.8364 11.4885
rtoes -49.9973
lfemur -69.8734 2.37154 -36.6593
ltibia 101.487
lfoot -11.0275 -3.85794
ltoes -40.4435
93
root -13.3196 13.2682 0.741934 -347.623 61.4741 -370.547
lowerback 28.286 2.57398 3.68743
upperback 12.4253 5.22123 5.49901
thorax -1.86548 2.82197 2.40139
lowerneck 1.57594 -7.84944 -13.5003
upperneck -27.1593 -5.6959 28.3433
head -6.64072 -3.85424 12.796
rclavicle 7.95139e-015 -8.50798e-014
rhumerus 18.4544 -35.8084 -59.2568
rradius 52.3118
rwrist -23.5653
rhand -7.95835 25.7113
rfingers 7.12502
rthumb 17.9489 -3.48047
lclavicle 7.95139e-015 -8.50798e-014
lhumerus -59.9182 -8.94566 82.0959
lradius 23.4176
lwrist -6.72868
lhand -23.8457 42.9149
lfingers 7.12502
lthumb 2.62637 72.8785
rfemur -4.31942 -9.5618 15.3265
rtibia 51.1979
rfoot -17.4124 16.3293
rtoes -49.2897
lfemur -71.6745 1.19993 -37.5697
ltibia 97.8734
lfoot -10.8775 -4.08195
ltoes -19.0041
94
root -12.9133 13.2286 1.1266 -347.852 62.8041 -370.745
lowerback 28.0177 2.05111 3.84577
upperback 12.5705 4.54432 4.615
thorax -1.47589 2.53716 1.56006
lowerneck 1.38569 -7.76844 -11.8313
upperneck -26.568 -5.44803 28.3514
head -6.5694 -3.86389 12.4065
rclavicle 1.74931e-014 9.22361e-014
rhumerus 14.8504 -37.5458 -59.1832
rradius 53.9699
rwrist -25.7369
rhand -5.0725 25.7021
rfingers 7.12502
rthumb 20.7237 -3.21139
lclavicle 1.74931e-014 9.22361e-014
lhumerus -62.274 -7.78114 80.7478
lradius 23.1501
lwrist -5.17815
lhand -23.5048 41.7945
lfingers 7.12502
lthumb 2.95556 71.7537
rfemur 0.352439 -8.39263 15.805
rtibia 45.539
rfoot -13.4734 20.6421
rtoes -48.4175
lfemur -73.1155 0.533866 -39.3011
ltibia 93.9616
lfoot -10.9383 -3.41012
ltoes -20.1052
95
root -12.49 13.2186 1.52537 -348.414 63.6218 -371.534
lowerback 27.5315 1.86989 2.86261
upperback 12.7311 4.06125 4.53707
thorax -1.13153 2.27575 2.192
lowerneck 0.724252 -7.35898 -11.6326
upperneck -25.2052 -5.05146 28.229
head -6.12455 -3.59658 12.1478
rclavicle -2.46493e-014 -4.96962e-014
rhumerus 12.2907 -38.0325 -58.9234
rradius 55.589
rwrist -30.7413
rhand -2.9218 25.1854
rfingers 7.12502
rthumb 22.789 -3.48848
lclavicle -2.46493e-014 -4.96962e-014
lhumerus -64.5226 -4.53988 79.5273
lradius 22.8549
lwrist -4.27588
lhand -21.3181 39.483
lfingers 7.12502
lthumb 5.0672 69.4024
rfemur 4.67428 -6.5865 16.937
rtibia 39.9013
rfoot -8.61458 23.3969
rtoes -46.576
lfemur -74.3036 0.817633 -41.0265
ltibia 89.6858
lfoot -10.9349 -3.76665
ltoes -19.2752
